<mxfile host="app.diagrams.net" agent="Mozilla/5.0 (X11; Linux x86_64; rv:131.0) Gecko/20100101 Firefox/131.0" version="24.7.17">
  <diagram name="Page-1" id="M7oVI5bVOm-QONpbAciu">
    <mxGraphModel dx="1122" dy="931" grid="1" gridSize="10" guides="1" tooltips="1" connect="1" arrows="1" fold="1" page="1" pageScale="1" pageWidth="850" pageHeight="1100" math="0" shadow="0">
      <root>
        <mxCell id="0" />
        <mxCell id="1" parent="0" />
        <mxCell id="3" value="Software System" style="whiteSpace=wrap;strokeWidth=2;" parent="1" vertex="1">
          <mxGeometry x="229" y="8" width="711" height="593" as="geometry" />
        </mxCell>
        <mxCell id="pBRWVgkh3eqtRrwx5RjY-24" style="edgeStyle=orthogonalEdgeStyle;rounded=0;orthogonalLoop=1;jettySize=auto;html=1;" edge="1" parent="1" source="4" target="7">
          <mxGeometry relative="1" as="geometry">
            <Array as="points">
              <mxPoint x="576" y="340" />
              <mxPoint x="576" y="410" />
            </Array>
          </mxGeometry>
        </mxCell>
        <mxCell id="4" value="Content Management System" style="whiteSpace=wrap;strokeWidth=2;" parent="1" vertex="1">
          <mxGeometry x="673" y="53.5" width="210" height="502" as="geometry" />
        </mxCell>
        <mxCell id="7" value="Advanced Media Library" style="ellipse;aspect=fixed;strokeWidth=2;whiteSpace=wrap;" parent="1" vertex="1">
          <mxGeometry x="320" y="330" width="160" height="160" as="geometry" />
        </mxCell>
        <mxCell id="pBRWVgkh3eqtRrwx5RjY-23" style="edgeStyle=orthogonalEdgeStyle;rounded=0;orthogonalLoop=1;jettySize=auto;html=1;" edge="1" parent="1" source="8" target="9">
          <mxGeometry relative="1" as="geometry">
            <Array as="points">
              <mxPoint x="690" y="146" />
              <mxPoint x="690" y="447" />
            </Array>
          </mxGeometry>
        </mxCell>
        <mxCell id="8" value="Admin Panel" style="ellipse;aspect=fixed;strokeWidth=2;whiteSpace=wrap;" parent="1" vertex="1">
          <mxGeometry x="717.5" y="85.5" width="121" height="121" as="geometry" />
        </mxCell>
        <mxCell id="9" value="Database" style="ellipse;aspect=fixed;strokeWidth=2;whiteSpace=wrap;" parent="1" vertex="1">
          <mxGeometry x="717.5" y="386.5" width="121" height="121" as="geometry" />
        </mxCell>
        <mxCell id="pBRWVgkh3eqtRrwx5RjY-22" style="edgeStyle=orthogonalEdgeStyle;rounded=0;orthogonalLoop=1;jettySize=auto;html=1;" edge="1" parent="1" source="11" target="7">
          <mxGeometry relative="1" as="geometry" />
        </mxCell>
        <mxCell id="11" value="Library Member&#xa;(user)&#xa;" style="ellipse;aspect=fixed;strokeWidth=2;whiteSpace=wrap;" parent="1" vertex="1">
          <mxGeometry x="55" y="175" width="121" height="121" as="geometry" />
        </mxCell>
        <mxCell id="pBRWVgkh3eqtRrwx5RjY-19" value="" style="edgeStyle=orthogonalEdgeStyle;rounded=0;orthogonalLoop=1;jettySize=auto;html=1;entryX=1;entryY=0.5;entryDx=0;entryDy=0;" edge="1" parent="1" source="12" target="8">
          <mxGeometry relative="1" as="geometry" />
        </mxCell>
        <mxCell id="12" value="Branch Manager&#xa;Librarian&#xa;(admin)&#xa;" style="ellipse;aspect=fixed;strokeWidth=2;whiteSpace=wrap;" parent="1" vertex="1">
          <mxGeometry x="1010" y="20" width="111" height="111" as="geometry" />
        </mxCell>
      </root>
    </mxGraphModel>
  </diagram>
</mxfile>
